<mxfile host="app.diagrams.net" modified="2024-01-26T00:19:24.410Z" agent="Mozilla/5.0 (Windows NT 10.0; Win64; x64) AppleWebKit/537.36 (KHTML, like Gecko) Chrome/120.0.0.0 Safari/537.36" etag="aEdiZVJmS6Wa4Y42q9Rd" version="21.7.2" type="device">
  <diagram id="R2lEEEUBdFMjLlhIrx00" name="Page-1">
    <mxGraphModel dx="1784" dy="1696" grid="1" gridSize="10" guides="1" tooltips="1" connect="1" arrows="1" fold="1" page="1" pageScale="1" pageWidth="850" pageHeight="1100" math="0" shadow="0" extFonts="Permanent Marker^https://fonts.googleapis.com/css?family=Permanent+Marker">
      <root>
        <mxCell id="0" />
        <mxCell id="1" parent="0" />
        <mxCell id="C-vyLk0tnHw3VtMMgP7b-2" value="Usuarios" style="shape=table;startSize=30;container=1;collapsible=1;childLayout=tableLayout;fixedRows=1;rowLines=0;fontStyle=1;align=center;resizeLast=1;" parent="1" vertex="1">
          <mxGeometry y="30" width="250" height="190" as="geometry" />
        </mxCell>
        <mxCell id="C-vyLk0tnHw3VtMMgP7b-3" value="" style="shape=partialRectangle;collapsible=0;dropTarget=0;pointerEvents=0;fillColor=none;points=[[0,0.5],[1,0.5]];portConstraint=eastwest;top=0;left=0;right=0;bottom=1;" parent="C-vyLk0tnHw3VtMMgP7b-2" vertex="1">
          <mxGeometry y="30" width="250" height="30" as="geometry" />
        </mxCell>
        <mxCell id="C-vyLk0tnHw3VtMMgP7b-4" value="PK" style="shape=partialRectangle;overflow=hidden;connectable=0;fillColor=none;top=0;left=0;bottom=0;right=0;fontStyle=1;" parent="C-vyLk0tnHw3VtMMgP7b-3" vertex="1">
          <mxGeometry width="30" height="30" as="geometry">
            <mxRectangle width="30" height="30" as="alternateBounds" />
          </mxGeometry>
        </mxCell>
        <mxCell id="C-vyLk0tnHw3VtMMgP7b-5" value="ID_usuario int NOT NULL " style="shape=partialRectangle;overflow=hidden;connectable=0;fillColor=none;top=0;left=0;bottom=0;right=0;align=left;spacingLeft=6;fontStyle=5;" parent="C-vyLk0tnHw3VtMMgP7b-3" vertex="1">
          <mxGeometry x="30" width="220" height="30" as="geometry">
            <mxRectangle width="220" height="30" as="alternateBounds" />
          </mxGeometry>
        </mxCell>
        <mxCell id="C-vyLk0tnHw3VtMMgP7b-6" value="" style="shape=partialRectangle;collapsible=0;dropTarget=0;pointerEvents=0;fillColor=none;points=[[0,0.5],[1,0.5]];portConstraint=eastwest;top=0;left=0;right=0;bottom=0;" parent="C-vyLk0tnHw3VtMMgP7b-2" vertex="1">
          <mxGeometry y="60" width="250" height="30" as="geometry" />
        </mxCell>
        <mxCell id="C-vyLk0tnHw3VtMMgP7b-7" value="" style="shape=partialRectangle;overflow=hidden;connectable=0;fillColor=none;top=0;left=0;bottom=0;right=0;" parent="C-vyLk0tnHw3VtMMgP7b-6" vertex="1">
          <mxGeometry width="30" height="30" as="geometry">
            <mxRectangle width="30" height="30" as="alternateBounds" />
          </mxGeometry>
        </mxCell>
        <mxCell id="C-vyLk0tnHw3VtMMgP7b-8" value="Nombre char NOT NULL" style="shape=partialRectangle;overflow=hidden;connectable=0;fillColor=none;top=0;left=0;bottom=0;right=0;align=left;spacingLeft=6;" parent="C-vyLk0tnHw3VtMMgP7b-6" vertex="1">
          <mxGeometry x="30" width="220" height="30" as="geometry">
            <mxRectangle width="220" height="30" as="alternateBounds" />
          </mxGeometry>
        </mxCell>
        <mxCell id="C-vyLk0tnHw3VtMMgP7b-9" value="" style="shape=partialRectangle;collapsible=0;dropTarget=0;pointerEvents=0;fillColor=none;points=[[0,0.5],[1,0.5]];portConstraint=eastwest;top=0;left=0;right=0;bottom=0;" parent="C-vyLk0tnHw3VtMMgP7b-2" vertex="1">
          <mxGeometry y="90" width="250" height="30" as="geometry" />
        </mxCell>
        <mxCell id="C-vyLk0tnHw3VtMMgP7b-10" value="" style="shape=partialRectangle;overflow=hidden;connectable=0;fillColor=none;top=0;left=0;bottom=0;right=0;" parent="C-vyLk0tnHw3VtMMgP7b-9" vertex="1">
          <mxGeometry width="30" height="30" as="geometry">
            <mxRectangle width="30" height="30" as="alternateBounds" />
          </mxGeometry>
        </mxCell>
        <mxCell id="C-vyLk0tnHw3VtMMgP7b-11" value="Dirección char NOT NULL" style="shape=partialRectangle;overflow=hidden;connectable=0;fillColor=none;top=0;left=0;bottom=0;right=0;align=left;spacingLeft=6;" parent="C-vyLk0tnHw3VtMMgP7b-9" vertex="1">
          <mxGeometry x="30" width="220" height="30" as="geometry">
            <mxRectangle width="220" height="30" as="alternateBounds" />
          </mxGeometry>
        </mxCell>
        <mxCell id="XHeK_hjx2MJj76gfXcJd-23" style="shape=partialRectangle;collapsible=0;dropTarget=0;pointerEvents=0;fillColor=none;points=[[0,0.5],[1,0.5]];portConstraint=eastwest;top=0;left=0;right=0;bottom=0;" vertex="1" parent="C-vyLk0tnHw3VtMMgP7b-2">
          <mxGeometry y="120" width="250" height="30" as="geometry" />
        </mxCell>
        <mxCell id="XHeK_hjx2MJj76gfXcJd-24" style="shape=partialRectangle;overflow=hidden;connectable=0;fillColor=none;top=0;left=0;bottom=0;right=0;" vertex="1" parent="XHeK_hjx2MJj76gfXcJd-23">
          <mxGeometry width="30" height="30" as="geometry">
            <mxRectangle width="30" height="30" as="alternateBounds" />
          </mxGeometry>
        </mxCell>
        <mxCell id="XHeK_hjx2MJj76gfXcJd-25" value="Correo_electronico char NOT NULL " style="shape=partialRectangle;overflow=hidden;connectable=0;fillColor=none;top=0;left=0;bottom=0;right=0;align=left;spacingLeft=6;" vertex="1" parent="XHeK_hjx2MJj76gfXcJd-23">
          <mxGeometry x="30" width="220" height="30" as="geometry">
            <mxRectangle width="220" height="30" as="alternateBounds" />
          </mxGeometry>
        </mxCell>
        <mxCell id="XHeK_hjx2MJj76gfXcJd-26" style="shape=partialRectangle;collapsible=0;dropTarget=0;pointerEvents=0;fillColor=none;points=[[0,0.5],[1,0.5]];portConstraint=eastwest;top=0;left=0;right=0;bottom=0;" vertex="1" parent="C-vyLk0tnHw3VtMMgP7b-2">
          <mxGeometry y="150" width="250" height="30" as="geometry" />
        </mxCell>
        <mxCell id="XHeK_hjx2MJj76gfXcJd-27" style="shape=partialRectangle;overflow=hidden;connectable=0;fillColor=none;top=0;left=0;bottom=0;right=0;" vertex="1" parent="XHeK_hjx2MJj76gfXcJd-26">
          <mxGeometry width="30" height="30" as="geometry">
            <mxRectangle width="30" height="30" as="alternateBounds" />
          </mxGeometry>
        </mxCell>
        <mxCell id="XHeK_hjx2MJj76gfXcJd-28" value="Telefono int NOT NULL" style="shape=partialRectangle;overflow=hidden;connectable=0;fillColor=none;top=0;left=0;bottom=0;right=0;align=left;spacingLeft=6;" vertex="1" parent="XHeK_hjx2MJj76gfXcJd-26">
          <mxGeometry x="30" width="220" height="30" as="geometry">
            <mxRectangle width="220" height="30" as="alternateBounds" />
          </mxGeometry>
        </mxCell>
        <mxCell id="C-vyLk0tnHw3VtMMgP7b-13" value="Préstamos" style="shape=table;startSize=30;container=1;collapsible=1;childLayout=tableLayout;fixedRows=1;rowLines=0;fontStyle=1;align=center;resizeLast=1;" parent="1" vertex="1">
          <mxGeometry x="380" y="-60" width="250" height="220" as="geometry" />
        </mxCell>
        <mxCell id="C-vyLk0tnHw3VtMMgP7b-14" value="" style="shape=partialRectangle;collapsible=0;dropTarget=0;pointerEvents=0;fillColor=none;points=[[0,0.5],[1,0.5]];portConstraint=eastwest;top=0;left=0;right=0;bottom=1;" parent="C-vyLk0tnHw3VtMMgP7b-13" vertex="1">
          <mxGeometry y="30" width="250" height="30" as="geometry" />
        </mxCell>
        <mxCell id="C-vyLk0tnHw3VtMMgP7b-15" value="PK" style="shape=partialRectangle;overflow=hidden;connectable=0;fillColor=none;top=0;left=0;bottom=0;right=0;fontStyle=1;" parent="C-vyLk0tnHw3VtMMgP7b-14" vertex="1">
          <mxGeometry width="30" height="30" as="geometry">
            <mxRectangle width="30" height="30" as="alternateBounds" />
          </mxGeometry>
        </mxCell>
        <mxCell id="C-vyLk0tnHw3VtMMgP7b-16" value="ID_prestamo int NOT NULL" style="shape=partialRectangle;overflow=hidden;connectable=0;fillColor=none;top=0;left=0;bottom=0;right=0;align=left;spacingLeft=6;fontStyle=5;" parent="C-vyLk0tnHw3VtMMgP7b-14" vertex="1">
          <mxGeometry x="30" width="220" height="30" as="geometry">
            <mxRectangle width="220" height="30" as="alternateBounds" />
          </mxGeometry>
        </mxCell>
        <mxCell id="C-vyLk0tnHw3VtMMgP7b-17" value="" style="shape=partialRectangle;collapsible=0;dropTarget=0;pointerEvents=0;fillColor=none;points=[[0,0.5],[1,0.5]];portConstraint=eastwest;top=0;left=0;right=0;bottom=0;" parent="C-vyLk0tnHw3VtMMgP7b-13" vertex="1">
          <mxGeometry y="60" width="250" height="30" as="geometry" />
        </mxCell>
        <mxCell id="C-vyLk0tnHw3VtMMgP7b-18" value="FK" style="shape=partialRectangle;overflow=hidden;connectable=0;fillColor=none;top=0;left=0;bottom=0;right=0;" parent="C-vyLk0tnHw3VtMMgP7b-17" vertex="1">
          <mxGeometry width="30" height="30" as="geometry">
            <mxRectangle width="30" height="30" as="alternateBounds" />
          </mxGeometry>
        </mxCell>
        <mxCell id="C-vyLk0tnHw3VtMMgP7b-19" value="ID_libro int NOT NULL" style="shape=partialRectangle;overflow=hidden;connectable=0;fillColor=none;top=0;left=0;bottom=0;right=0;align=left;spacingLeft=6;" parent="C-vyLk0tnHw3VtMMgP7b-17" vertex="1">
          <mxGeometry x="30" width="220" height="30" as="geometry">
            <mxRectangle width="220" height="30" as="alternateBounds" />
          </mxGeometry>
        </mxCell>
        <mxCell id="C-vyLk0tnHw3VtMMgP7b-20" value="" style="shape=partialRectangle;collapsible=0;dropTarget=0;pointerEvents=0;fillColor=none;points=[[0,0.5],[1,0.5]];portConstraint=eastwest;top=0;left=0;right=0;bottom=0;" parent="C-vyLk0tnHw3VtMMgP7b-13" vertex="1">
          <mxGeometry y="90" width="250" height="30" as="geometry" />
        </mxCell>
        <mxCell id="C-vyLk0tnHw3VtMMgP7b-21" value="FK" style="shape=partialRectangle;overflow=hidden;connectable=0;fillColor=none;top=0;left=0;bottom=0;right=0;" parent="C-vyLk0tnHw3VtMMgP7b-20" vertex="1">
          <mxGeometry width="30" height="30" as="geometry">
            <mxRectangle width="30" height="30" as="alternateBounds" />
          </mxGeometry>
        </mxCell>
        <mxCell id="C-vyLk0tnHw3VtMMgP7b-22" value="ID_usuario int NOT NULL" style="shape=partialRectangle;overflow=hidden;connectable=0;fillColor=none;top=0;left=0;bottom=0;right=0;align=left;spacingLeft=6;" parent="C-vyLk0tnHw3VtMMgP7b-20" vertex="1">
          <mxGeometry x="30" width="220" height="30" as="geometry">
            <mxRectangle width="220" height="30" as="alternateBounds" />
          </mxGeometry>
        </mxCell>
        <mxCell id="XHeK_hjx2MJj76gfXcJd-32" style="shape=partialRectangle;collapsible=0;dropTarget=0;pointerEvents=0;fillColor=none;points=[[0,0.5],[1,0.5]];portConstraint=eastwest;top=0;left=0;right=0;bottom=0;" vertex="1" parent="C-vyLk0tnHw3VtMMgP7b-13">
          <mxGeometry y="120" width="250" height="30" as="geometry" />
        </mxCell>
        <mxCell id="XHeK_hjx2MJj76gfXcJd-33" style="shape=partialRectangle;overflow=hidden;connectable=0;fillColor=none;top=0;left=0;bottom=0;right=0;" vertex="1" parent="XHeK_hjx2MJj76gfXcJd-32">
          <mxGeometry width="30" height="30" as="geometry">
            <mxRectangle width="30" height="30" as="alternateBounds" />
          </mxGeometry>
        </mxCell>
        <mxCell id="XHeK_hjx2MJj76gfXcJd-34" value="Fecha_prestamo Date NOT NULL" style="shape=partialRectangle;overflow=hidden;connectable=0;fillColor=none;top=0;left=0;bottom=0;right=0;align=left;spacingLeft=6;" vertex="1" parent="XHeK_hjx2MJj76gfXcJd-32">
          <mxGeometry x="30" width="220" height="30" as="geometry">
            <mxRectangle width="220" height="30" as="alternateBounds" />
          </mxGeometry>
        </mxCell>
        <mxCell id="XHeK_hjx2MJj76gfXcJd-35" style="shape=partialRectangle;collapsible=0;dropTarget=0;pointerEvents=0;fillColor=none;points=[[0,0.5],[1,0.5]];portConstraint=eastwest;top=0;left=0;right=0;bottom=0;" vertex="1" parent="C-vyLk0tnHw3VtMMgP7b-13">
          <mxGeometry y="150" width="250" height="30" as="geometry" />
        </mxCell>
        <mxCell id="XHeK_hjx2MJj76gfXcJd-36" style="shape=partialRectangle;overflow=hidden;connectable=0;fillColor=none;top=0;left=0;bottom=0;right=0;" vertex="1" parent="XHeK_hjx2MJj76gfXcJd-35">
          <mxGeometry width="30" height="30" as="geometry">
            <mxRectangle width="30" height="30" as="alternateBounds" />
          </mxGeometry>
        </mxCell>
        <mxCell id="XHeK_hjx2MJj76gfXcJd-37" value="Fecha_devolucion Date NOT NULL" style="shape=partialRectangle;overflow=hidden;connectable=0;fillColor=none;top=0;left=0;bottom=0;right=0;align=left;spacingLeft=6;" vertex="1" parent="XHeK_hjx2MJj76gfXcJd-35">
          <mxGeometry x="30" width="220" height="30" as="geometry">
            <mxRectangle width="220" height="30" as="alternateBounds" />
          </mxGeometry>
        </mxCell>
        <mxCell id="XHeK_hjx2MJj76gfXcJd-38" style="shape=partialRectangle;collapsible=0;dropTarget=0;pointerEvents=0;fillColor=none;points=[[0,0.5],[1,0.5]];portConstraint=eastwest;top=0;left=0;right=0;bottom=0;" vertex="1" parent="C-vyLk0tnHw3VtMMgP7b-13">
          <mxGeometry y="180" width="250" height="30" as="geometry" />
        </mxCell>
        <mxCell id="XHeK_hjx2MJj76gfXcJd-39" style="shape=partialRectangle;overflow=hidden;connectable=0;fillColor=none;top=0;left=0;bottom=0;right=0;" vertex="1" parent="XHeK_hjx2MJj76gfXcJd-38">
          <mxGeometry width="30" height="30" as="geometry">
            <mxRectangle width="30" height="30" as="alternateBounds" />
          </mxGeometry>
        </mxCell>
        <mxCell id="XHeK_hjx2MJj76gfXcJd-40" value="Estado" style="shape=partialRectangle;overflow=hidden;connectable=0;fillColor=none;top=0;left=0;bottom=0;right=0;align=left;spacingLeft=6;" vertex="1" parent="XHeK_hjx2MJj76gfXcJd-38">
          <mxGeometry x="30" width="220" height="30" as="geometry">
            <mxRectangle width="220" height="30" as="alternateBounds" />
          </mxGeometry>
        </mxCell>
        <mxCell id="C-vyLk0tnHw3VtMMgP7b-23" value="Libros" style="shape=table;startSize=30;container=1;collapsible=1;childLayout=tableLayout;fixedRows=1;rowLines=0;fontStyle=1;align=center;resizeLast=1;" parent="1" vertex="1">
          <mxGeometry y="-270" width="250" height="220" as="geometry" />
        </mxCell>
        <mxCell id="C-vyLk0tnHw3VtMMgP7b-24" value="" style="shape=partialRectangle;collapsible=0;dropTarget=0;pointerEvents=0;fillColor=none;points=[[0,0.5],[1,0.5]];portConstraint=eastwest;top=0;left=0;right=0;bottom=1;" parent="C-vyLk0tnHw3VtMMgP7b-23" vertex="1">
          <mxGeometry y="30" width="250" height="30" as="geometry" />
        </mxCell>
        <mxCell id="C-vyLk0tnHw3VtMMgP7b-25" value="PK" style="shape=partialRectangle;overflow=hidden;connectable=0;fillColor=none;top=0;left=0;bottom=0;right=0;fontStyle=1;" parent="C-vyLk0tnHw3VtMMgP7b-24" vertex="1">
          <mxGeometry width="30" height="30" as="geometry">
            <mxRectangle width="30" height="30" as="alternateBounds" />
          </mxGeometry>
        </mxCell>
        <mxCell id="C-vyLk0tnHw3VtMMgP7b-26" value="ID_libro int NOT NULL" style="shape=partialRectangle;overflow=hidden;connectable=0;fillColor=none;top=0;left=0;bottom=0;right=0;align=left;spacingLeft=6;fontStyle=5;" parent="C-vyLk0tnHw3VtMMgP7b-24" vertex="1">
          <mxGeometry x="30" width="220" height="30" as="geometry">
            <mxRectangle width="220" height="30" as="alternateBounds" />
          </mxGeometry>
        </mxCell>
        <mxCell id="C-vyLk0tnHw3VtMMgP7b-27" value="" style="shape=partialRectangle;collapsible=0;dropTarget=0;pointerEvents=0;fillColor=none;points=[[0,0.5],[1,0.5]];portConstraint=eastwest;top=0;left=0;right=0;bottom=0;" parent="C-vyLk0tnHw3VtMMgP7b-23" vertex="1">
          <mxGeometry y="60" width="250" height="30" as="geometry" />
        </mxCell>
        <mxCell id="C-vyLk0tnHw3VtMMgP7b-28" value="" style="shape=partialRectangle;overflow=hidden;connectable=0;fillColor=none;top=0;left=0;bottom=0;right=0;" parent="C-vyLk0tnHw3VtMMgP7b-27" vertex="1">
          <mxGeometry width="30" height="30" as="geometry">
            <mxRectangle width="30" height="30" as="alternateBounds" />
          </mxGeometry>
        </mxCell>
        <mxCell id="C-vyLk0tnHw3VtMMgP7b-29" value="Título char NOT NULL" style="shape=partialRectangle;overflow=hidden;connectable=0;fillColor=none;top=0;left=0;bottom=0;right=0;align=left;spacingLeft=6;" parent="C-vyLk0tnHw3VtMMgP7b-27" vertex="1">
          <mxGeometry x="30" width="220" height="30" as="geometry">
            <mxRectangle width="220" height="30" as="alternateBounds" />
          </mxGeometry>
        </mxCell>
        <mxCell id="XHeK_hjx2MJj76gfXcJd-11" style="shape=partialRectangle;collapsible=0;dropTarget=0;pointerEvents=0;fillColor=none;points=[[0,0.5],[1,0.5]];portConstraint=eastwest;top=0;left=0;right=0;bottom=0;" vertex="1" parent="C-vyLk0tnHw3VtMMgP7b-23">
          <mxGeometry y="90" width="250" height="30" as="geometry" />
        </mxCell>
        <mxCell id="XHeK_hjx2MJj76gfXcJd-12" style="shape=partialRectangle;overflow=hidden;connectable=0;fillColor=none;top=0;left=0;bottom=0;right=0;" vertex="1" parent="XHeK_hjx2MJj76gfXcJd-11">
          <mxGeometry width="30" height="30" as="geometry">
            <mxRectangle width="30" height="30" as="alternateBounds" />
          </mxGeometry>
        </mxCell>
        <mxCell id="XHeK_hjx2MJj76gfXcJd-13" value="Autor char NOT NULL" style="shape=partialRectangle;overflow=hidden;connectable=0;fillColor=none;top=0;left=0;bottom=0;right=0;align=left;spacingLeft=6;" vertex="1" parent="XHeK_hjx2MJj76gfXcJd-11">
          <mxGeometry x="30" width="220" height="30" as="geometry">
            <mxRectangle width="220" height="30" as="alternateBounds" />
          </mxGeometry>
        </mxCell>
        <mxCell id="XHeK_hjx2MJj76gfXcJd-14" style="shape=partialRectangle;collapsible=0;dropTarget=0;pointerEvents=0;fillColor=none;points=[[0,0.5],[1,0.5]];portConstraint=eastwest;top=0;left=0;right=0;bottom=0;" vertex="1" parent="C-vyLk0tnHw3VtMMgP7b-23">
          <mxGeometry y="120" width="250" height="30" as="geometry" />
        </mxCell>
        <mxCell id="XHeK_hjx2MJj76gfXcJd-15" style="shape=partialRectangle;overflow=hidden;connectable=0;fillColor=none;top=0;left=0;bottom=0;right=0;" vertex="1" parent="XHeK_hjx2MJj76gfXcJd-14">
          <mxGeometry width="30" height="30" as="geometry">
            <mxRectangle width="30" height="30" as="alternateBounds" />
          </mxGeometry>
        </mxCell>
        <mxCell id="XHeK_hjx2MJj76gfXcJd-16" value="ISBN intNOT NULL" style="shape=partialRectangle;overflow=hidden;connectable=0;fillColor=none;top=0;left=0;bottom=0;right=0;align=left;spacingLeft=6;" vertex="1" parent="XHeK_hjx2MJj76gfXcJd-14">
          <mxGeometry x="30" width="220" height="30" as="geometry">
            <mxRectangle width="220" height="30" as="alternateBounds" />
          </mxGeometry>
        </mxCell>
        <mxCell id="XHeK_hjx2MJj76gfXcJd-17" style="shape=partialRectangle;collapsible=0;dropTarget=0;pointerEvents=0;fillColor=none;points=[[0,0.5],[1,0.5]];portConstraint=eastwest;top=0;left=0;right=0;bottom=0;" vertex="1" parent="C-vyLk0tnHw3VtMMgP7b-23">
          <mxGeometry y="150" width="250" height="30" as="geometry" />
        </mxCell>
        <mxCell id="XHeK_hjx2MJj76gfXcJd-18" style="shape=partialRectangle;overflow=hidden;connectable=0;fillColor=none;top=0;left=0;bottom=0;right=0;" vertex="1" parent="XHeK_hjx2MJj76gfXcJd-17">
          <mxGeometry width="30" height="30" as="geometry">
            <mxRectangle width="30" height="30" as="alternateBounds" />
          </mxGeometry>
        </mxCell>
        <mxCell id="XHeK_hjx2MJj76gfXcJd-19" value="Año_de_publicación Date NOT NULL" style="shape=partialRectangle;overflow=hidden;connectable=0;fillColor=none;top=0;left=0;bottom=0;right=0;align=left;spacingLeft=6;" vertex="1" parent="XHeK_hjx2MJj76gfXcJd-17">
          <mxGeometry x="30" width="220" height="30" as="geometry">
            <mxRectangle width="220" height="30" as="alternateBounds" />
          </mxGeometry>
        </mxCell>
        <mxCell id="XHeK_hjx2MJj76gfXcJd-20" style="shape=partialRectangle;collapsible=0;dropTarget=0;pointerEvents=0;fillColor=none;points=[[0,0.5],[1,0.5]];portConstraint=eastwest;top=0;left=0;right=0;bottom=0;" vertex="1" parent="C-vyLk0tnHw3VtMMgP7b-23">
          <mxGeometry y="180" width="250" height="30" as="geometry" />
        </mxCell>
        <mxCell id="XHeK_hjx2MJj76gfXcJd-21" style="shape=partialRectangle;overflow=hidden;connectable=0;fillColor=none;top=0;left=0;bottom=0;right=0;" vertex="1" parent="XHeK_hjx2MJj76gfXcJd-20">
          <mxGeometry width="30" height="30" as="geometry">
            <mxRectangle width="30" height="30" as="alternateBounds" />
          </mxGeometry>
        </mxCell>
        <mxCell id="XHeK_hjx2MJj76gfXcJd-22" value="Cantidad_disponible int NOT NULL" style="shape=partialRectangle;overflow=hidden;connectable=0;fillColor=none;top=0;left=0;bottom=0;right=0;align=left;spacingLeft=6;" vertex="1" parent="XHeK_hjx2MJj76gfXcJd-20">
          <mxGeometry x="30" width="220" height="30" as="geometry">
            <mxRectangle width="220" height="30" as="alternateBounds" />
          </mxGeometry>
        </mxCell>
        <mxCell id="XHeK_hjx2MJj76gfXcJd-44" style="edgeStyle=orthogonalEdgeStyle;rounded=0;orthogonalLoop=1;jettySize=auto;html=1;entryX=0;entryY=0.5;entryDx=0;entryDy=0;" edge="1" parent="1" source="C-vyLk0tnHw3VtMMgP7b-24" target="C-vyLk0tnHw3VtMMgP7b-17">
          <mxGeometry relative="1" as="geometry" />
        </mxCell>
        <mxCell id="XHeK_hjx2MJj76gfXcJd-51" style="edgeStyle=orthogonalEdgeStyle;rounded=0;orthogonalLoop=1;jettySize=auto;html=1;entryX=0;entryY=0.5;entryDx=0;entryDy=0;endArrow=ERoneToMany;endFill=0;" edge="1" parent="1" source="C-vyLk0tnHw3VtMMgP7b-3" target="C-vyLk0tnHw3VtMMgP7b-20">
          <mxGeometry relative="1" as="geometry" />
        </mxCell>
        <mxCell id="XHeK_hjx2MJj76gfXcJd-76" style="edgeStyle=orthogonalEdgeStyle;rounded=0;orthogonalLoop=1;jettySize=auto;html=1;entryX=0.5;entryY=1;entryDx=0;entryDy=0;" edge="1" parent="1" source="XHeK_hjx2MJj76gfXcJd-52">
          <mxGeometry relative="1" as="geometry">
            <mxPoint x="505" y="620" as="targetPoint" />
          </mxGeometry>
        </mxCell>
        <mxCell id="XHeK_hjx2MJj76gfXcJd-81" style="edgeStyle=orthogonalEdgeStyle;rounded=0;orthogonalLoop=1;jettySize=auto;html=1;exitX=0.25;exitY=0;exitDx=0;exitDy=0;entryX=0.5;entryY=1;entryDx=0;entryDy=0;" edge="1" parent="1" source="XHeK_hjx2MJj76gfXcJd-129">
          <mxGeometry relative="1" as="geometry">
            <mxPoint x="595" y="620" as="targetPoint" />
          </mxGeometry>
        </mxCell>
        <mxCell id="XHeK_hjx2MJj76gfXcJd-82" style="edgeStyle=orthogonalEdgeStyle;rounded=0;orthogonalLoop=1;jettySize=auto;html=1;exitX=0.5;exitY=0;exitDx=0;exitDy=0;entryX=0.5;entryY=1;entryDx=0;entryDy=0;" edge="1" parent="1" source="XHeK_hjx2MJj76gfXcJd-52">
          <mxGeometry relative="1" as="geometry">
            <mxPoint x="685" y="620" as="targetPoint" />
            <Array as="points">
              <mxPoint x="640" y="640" />
              <mxPoint x="685" y="640" />
            </Array>
          </mxGeometry>
        </mxCell>
        <mxCell id="XHeK_hjx2MJj76gfXcJd-83" style="edgeStyle=orthogonalEdgeStyle;rounded=0;orthogonalLoop=1;jettySize=auto;html=1;exitX=0.75;exitY=0;exitDx=0;exitDy=0;entryX=0.5;entryY=1;entryDx=0;entryDy=0;" edge="1" parent="1" source="XHeK_hjx2MJj76gfXcJd-52">
          <mxGeometry relative="1" as="geometry">
            <mxPoint x="775" y="620" as="targetPoint" />
          </mxGeometry>
        </mxCell>
        <mxCell id="XHeK_hjx2MJj76gfXcJd-108" style="edgeStyle=orthogonalEdgeStyle;rounded=0;orthogonalLoop=1;jettySize=auto;html=1;" edge="1" parent="1" source="XHeK_hjx2MJj76gfXcJd-52">
          <mxGeometry relative="1" as="geometry">
            <mxPoint x="610" y="790" as="targetPoint" />
          </mxGeometry>
        </mxCell>
        <mxCell id="XHeK_hjx2MJj76gfXcJd-134" style="edgeStyle=orthogonalEdgeStyle;rounded=0;orthogonalLoop=1;jettySize=auto;html=1;exitX=1;exitY=0;exitDx=0;exitDy=0;entryX=0.5;entryY=1;entryDx=0;entryDy=0;" edge="1" parent="1" source="XHeK_hjx2MJj76gfXcJd-52" target="XHeK_hjx2MJj76gfXcJd-133">
          <mxGeometry relative="1" as="geometry">
            <Array as="points">
              <mxPoint x="700" y="690" />
              <mxPoint x="900" y="690" />
            </Array>
          </mxGeometry>
        </mxCell>
        <mxCell id="XHeK_hjx2MJj76gfXcJd-52" value="Usuarios" style="rounded=0;whiteSpace=wrap;html=1;" vertex="1" parent="1">
          <mxGeometry x="580" y="700" width="120" height="60" as="geometry" />
        </mxCell>
        <mxCell id="XHeK_hjx2MJj76gfXcJd-84" style="edgeStyle=orthogonalEdgeStyle;rounded=0;orthogonalLoop=1;jettySize=auto;html=1;exitX=0;exitY=0;exitDx=0;exitDy=0;entryX=0.5;entryY=1;entryDx=0;entryDy=0;" edge="1" parent="1" source="XHeK_hjx2MJj76gfXcJd-53" target="XHeK_hjx2MJj76gfXcJd-110">
          <mxGeometry relative="1" as="geometry">
            <mxPoint x="-32.5" y="880" as="targetPoint" />
          </mxGeometry>
        </mxCell>
        <mxCell id="XHeK_hjx2MJj76gfXcJd-85" style="edgeStyle=orthogonalEdgeStyle;rounded=0;orthogonalLoop=1;jettySize=auto;html=1;exitX=0.25;exitY=0;exitDx=0;exitDy=0;entryX=0.5;entryY=1;entryDx=0;entryDy=0;" edge="1" parent="1" source="XHeK_hjx2MJj76gfXcJd-53" target="XHeK_hjx2MJj76gfXcJd-111">
          <mxGeometry relative="1" as="geometry">
            <mxPoint x="47.5" y="880" as="targetPoint" />
          </mxGeometry>
        </mxCell>
        <mxCell id="XHeK_hjx2MJj76gfXcJd-86" style="edgeStyle=orthogonalEdgeStyle;rounded=0;orthogonalLoop=1;jettySize=auto;html=1;exitX=0.5;exitY=0;exitDx=0;exitDy=0;entryX=0.5;entryY=1;entryDx=0;entryDy=0;" edge="1" parent="1" source="XHeK_hjx2MJj76gfXcJd-53" target="XHeK_hjx2MJj76gfXcJd-112">
          <mxGeometry relative="1" as="geometry">
            <mxPoint x="145" y="880" as="targetPoint" />
          </mxGeometry>
        </mxCell>
        <mxCell id="XHeK_hjx2MJj76gfXcJd-87" style="edgeStyle=orthogonalEdgeStyle;rounded=0;orthogonalLoop=1;jettySize=auto;html=1;exitX=0.75;exitY=0;exitDx=0;exitDy=0;entryX=0.5;entryY=1;entryDx=0;entryDy=0;" edge="1" parent="1" source="XHeK_hjx2MJj76gfXcJd-53" target="XHeK_hjx2MJj76gfXcJd-114">
          <mxGeometry relative="1" as="geometry">
            <mxPoint x="235" y="880" as="targetPoint" />
            <Array as="points">
              <mxPoint x="130" y="940" />
              <mxPoint x="235" y="940" />
              <mxPoint x="235" y="880" />
            </Array>
          </mxGeometry>
        </mxCell>
        <mxCell id="XHeK_hjx2MJj76gfXcJd-89" style="edgeStyle=orthogonalEdgeStyle;rounded=0;orthogonalLoop=1;jettySize=auto;html=1;exitX=1;exitY=0.25;exitDx=0;exitDy=0;entryX=0.5;entryY=1;entryDx=0;entryDy=0;" edge="1" parent="1" source="XHeK_hjx2MJj76gfXcJd-53" target="XHeK_hjx2MJj76gfXcJd-115">
          <mxGeometry relative="1" as="geometry">
            <mxPoint x="335" y="880" as="targetPoint" />
            <Array as="points">
              <mxPoint x="336" y="995" />
              <mxPoint x="336" y="880" />
            </Array>
          </mxGeometry>
        </mxCell>
        <mxCell id="XHeK_hjx2MJj76gfXcJd-90" style="edgeStyle=orthogonalEdgeStyle;rounded=0;orthogonalLoop=1;jettySize=auto;html=1;exitX=1;exitY=0.5;exitDx=0;exitDy=0;entryX=0.5;entryY=1;entryDx=0;entryDy=0;" edge="1" parent="1" source="XHeK_hjx2MJj76gfXcJd-53" target="XHeK_hjx2MJj76gfXcJd-116">
          <mxGeometry relative="1" as="geometry">
            <mxPoint x="460" y="880" as="targetPoint" />
          </mxGeometry>
        </mxCell>
        <mxCell id="XHeK_hjx2MJj76gfXcJd-53" value="Libros" style="rounded=0;whiteSpace=wrap;html=1;" vertex="1" parent="1">
          <mxGeometry x="40" y="980" width="120" height="60" as="geometry" />
        </mxCell>
        <mxCell id="XHeK_hjx2MJj76gfXcJd-91" style="edgeStyle=orthogonalEdgeStyle;rounded=0;orthogonalLoop=1;jettySize=auto;html=1;exitX=0;exitY=0;exitDx=0;exitDy=0;entryX=0.5;entryY=1;entryDx=0;entryDy=0;" edge="1" parent="1" source="XHeK_hjx2MJj76gfXcJd-54">
          <mxGeometry relative="1" as="geometry">
            <mxPoint x="725" y="890" as="targetPoint" />
            <Array as="points">
              <mxPoint x="780" y="960" />
              <mxPoint x="780" y="925" />
              <mxPoint x="725" y="925" />
            </Array>
          </mxGeometry>
        </mxCell>
        <mxCell id="XHeK_hjx2MJj76gfXcJd-92" style="edgeStyle=orthogonalEdgeStyle;rounded=0;orthogonalLoop=1;jettySize=auto;html=1;exitX=0.25;exitY=0;exitDx=0;exitDy=0;entryX=0.5;entryY=1;entryDx=0;entryDy=0;" edge="1" parent="1" source="XHeK_hjx2MJj76gfXcJd-54">
          <mxGeometry relative="1" as="geometry">
            <mxPoint x="830" y="890" as="targetPoint" />
            <Array as="points">
              <mxPoint x="880" y="960" />
              <mxPoint x="880" y="925" />
              <mxPoint x="788" y="925" />
              <mxPoint x="788" y="890" />
            </Array>
          </mxGeometry>
        </mxCell>
        <mxCell id="XHeK_hjx2MJj76gfXcJd-93" style="edgeStyle=orthogonalEdgeStyle;rounded=0;orthogonalLoop=1;jettySize=auto;html=1;exitX=0.5;exitY=0;exitDx=0;exitDy=0;entryX=0.5;entryY=1;entryDx=0;entryDy=0;" edge="1" parent="1" source="XHeK_hjx2MJj76gfXcJd-54">
          <mxGeometry relative="1" as="geometry">
            <mxPoint x="945" y="890" as="targetPoint" />
          </mxGeometry>
        </mxCell>
        <mxCell id="XHeK_hjx2MJj76gfXcJd-94" style="edgeStyle=orthogonalEdgeStyle;rounded=0;orthogonalLoop=1;jettySize=auto;html=1;exitX=0.75;exitY=0;exitDx=0;exitDy=0;entryX=0.5;entryY=1;entryDx=0;entryDy=0;" edge="1" parent="1" source="XHeK_hjx2MJj76gfXcJd-54" target="XHeK_hjx2MJj76gfXcJd-120">
          <mxGeometry relative="1" as="geometry">
            <mxPoint x="985" y="890" as="targetPoint" />
          </mxGeometry>
        </mxCell>
        <mxCell id="XHeK_hjx2MJj76gfXcJd-95" style="edgeStyle=orthogonalEdgeStyle;rounded=0;orthogonalLoop=1;jettySize=auto;html=1;exitX=1;exitY=0;exitDx=0;exitDy=0;entryX=0.5;entryY=1;entryDx=0;entryDy=0;" edge="1" parent="1" source="XHeK_hjx2MJj76gfXcJd-54" target="XHeK_hjx2MJj76gfXcJd-121">
          <mxGeometry relative="1" as="geometry">
            <mxPoint x="1095" y="890" as="targetPoint" />
            <Array as="points">
              <mxPoint x="980" y="940" />
              <mxPoint x="1095" y="940" />
              <mxPoint x="1095" y="890" />
            </Array>
          </mxGeometry>
        </mxCell>
        <mxCell id="XHeK_hjx2MJj76gfXcJd-96" style="edgeStyle=orthogonalEdgeStyle;rounded=0;orthogonalLoop=1;jettySize=auto;html=1;exitX=1;exitY=0.25;exitDx=0;exitDy=0;entryX=0.5;entryY=1;entryDx=0;entryDy=0;" edge="1" parent="1" source="XHeK_hjx2MJj76gfXcJd-54" target="XHeK_hjx2MJj76gfXcJd-122">
          <mxGeometry relative="1" as="geometry">
            <mxPoint x="1185" y="890" as="targetPoint" />
          </mxGeometry>
        </mxCell>
        <mxCell id="XHeK_hjx2MJj76gfXcJd-54" value="Préstamos" style="rounded=0;whiteSpace=wrap;html=1;" vertex="1" parent="1">
          <mxGeometry x="860" y="960" width="120" height="60" as="geometry" />
        </mxCell>
        <mxCell id="XHeK_hjx2MJj76gfXcJd-106" style="edgeStyle=orthogonalEdgeStyle;rounded=0;orthogonalLoop=1;jettySize=auto;html=1;entryX=0.5;entryY=1;entryDx=0;entryDy=0;exitX=1;exitY=0.5;exitDx=0;exitDy=0;" edge="1" parent="1" source="XHeK_hjx2MJj76gfXcJd-137" target="XHeK_hjx2MJj76gfXcJd-54">
          <mxGeometry relative="1" as="geometry">
            <mxPoint x="660" y="1020" as="sourcePoint" />
          </mxGeometry>
        </mxCell>
        <mxCell id="XHeK_hjx2MJj76gfXcJd-109" style="edgeStyle=orthogonalEdgeStyle;rounded=0;orthogonalLoop=1;jettySize=auto;html=1;entryX=0;entryY=0.75;entryDx=0;entryDy=0;" edge="1" parent="1" target="XHeK_hjx2MJj76gfXcJd-54">
          <mxGeometry relative="1" as="geometry">
            <mxPoint x="620" y="845" as="sourcePoint" />
            <Array as="points">
              <mxPoint x="620" y="980" />
              <mxPoint x="860" y="980" />
            </Array>
          </mxGeometry>
        </mxCell>
        <mxCell id="XHeK_hjx2MJj76gfXcJd-164" style="edgeStyle=orthogonalEdgeStyle;rounded=0;orthogonalLoop=1;jettySize=auto;html=1;exitX=0.5;exitY=0;exitDx=0;exitDy=0;entryX=0.375;entryY=1;entryDx=0;entryDy=0;" edge="1" parent="1" source="XHeK_hjx2MJj76gfXcJd-110" target="XHeK_hjx2MJj76gfXcJd-140">
          <mxGeometry relative="1" as="geometry" />
        </mxCell>
        <mxCell id="XHeK_hjx2MJj76gfXcJd-110" value="ID_libro" style="ellipse;whiteSpace=wrap;html=1;align=center;fontStyle=4;" vertex="1" parent="1">
          <mxGeometry x="-115" y="840" width="100" height="40" as="geometry" />
        </mxCell>
        <mxCell id="XHeK_hjx2MJj76gfXcJd-165" style="edgeStyle=orthogonalEdgeStyle;rounded=0;orthogonalLoop=1;jettySize=auto;html=1;exitX=0.5;exitY=0;exitDx=0;exitDy=0;entryX=0.375;entryY=1;entryDx=0;entryDy=0;" edge="1" parent="1" source="XHeK_hjx2MJj76gfXcJd-111" target="XHeK_hjx2MJj76gfXcJd-142">
          <mxGeometry relative="1" as="geometry" />
        </mxCell>
        <mxCell id="XHeK_hjx2MJj76gfXcJd-111" value="Titulo" style="ellipse;whiteSpace=wrap;html=1;align=center;" vertex="1" parent="1">
          <mxGeometry x="-5" y="840" width="100" height="40" as="geometry" />
        </mxCell>
        <mxCell id="XHeK_hjx2MJj76gfXcJd-166" style="edgeStyle=orthogonalEdgeStyle;rounded=0;orthogonalLoop=1;jettySize=auto;html=1;exitX=0.5;exitY=0;exitDx=0;exitDy=0;entryX=0.5;entryY=1;entryDx=0;entryDy=0;" edge="1" parent="1" source="XHeK_hjx2MJj76gfXcJd-112" target="XHeK_hjx2MJj76gfXcJd-143">
          <mxGeometry relative="1" as="geometry" />
        </mxCell>
        <mxCell id="XHeK_hjx2MJj76gfXcJd-112" value="Autor" style="ellipse;whiteSpace=wrap;html=1;align=center;" vertex="1" parent="1">
          <mxGeometry x="110" y="840" width="100" height="40" as="geometry" />
        </mxCell>
        <mxCell id="XHeK_hjx2MJj76gfXcJd-167" style="edgeStyle=orthogonalEdgeStyle;rounded=0;orthogonalLoop=1;jettySize=auto;html=1;exitX=0.5;exitY=0;exitDx=0;exitDy=0;entryX=0.5;entryY=1;entryDx=0;entryDy=0;" edge="1" parent="1" source="XHeK_hjx2MJj76gfXcJd-114" target="XHeK_hjx2MJj76gfXcJd-144">
          <mxGeometry relative="1" as="geometry">
            <mxPoint x="266" y="800" as="targetPoint" />
          </mxGeometry>
        </mxCell>
        <mxCell id="XHeK_hjx2MJj76gfXcJd-114" value="ISBN" style="ellipse;whiteSpace=wrap;html=1;align=center;" vertex="1" parent="1">
          <mxGeometry x="215" y="840" width="100" height="40" as="geometry" />
        </mxCell>
        <mxCell id="XHeK_hjx2MJj76gfXcJd-168" style="edgeStyle=orthogonalEdgeStyle;rounded=0;orthogonalLoop=1;jettySize=auto;html=1;exitX=0.5;exitY=0;exitDx=0;exitDy=0;entryX=0.5;entryY=1;entryDx=0;entryDy=0;" edge="1" parent="1" source="XHeK_hjx2MJj76gfXcJd-115" target="XHeK_hjx2MJj76gfXcJd-145">
          <mxGeometry relative="1" as="geometry" />
        </mxCell>
        <mxCell id="XHeK_hjx2MJj76gfXcJd-115" value="Año_publicacion" style="ellipse;whiteSpace=wrap;html=1;align=center;" vertex="1" parent="1">
          <mxGeometry x="325" y="840" width="100" height="40" as="geometry" />
        </mxCell>
        <mxCell id="XHeK_hjx2MJj76gfXcJd-169" style="edgeStyle=orthogonalEdgeStyle;rounded=0;orthogonalLoop=1;jettySize=auto;html=1;exitX=0.5;exitY=0;exitDx=0;exitDy=0;entryX=0.5;entryY=1;entryDx=0;entryDy=0;" edge="1" parent="1" source="XHeK_hjx2MJj76gfXcJd-116" target="XHeK_hjx2MJj76gfXcJd-146">
          <mxGeometry relative="1" as="geometry" />
        </mxCell>
        <mxCell id="XHeK_hjx2MJj76gfXcJd-116" value="Cantidad_dispomible" style="ellipse;whiteSpace=wrap;html=1;align=center;" vertex="1" parent="1">
          <mxGeometry x="440" y="840" width="100" height="40" as="geometry" />
        </mxCell>
        <mxCell id="XHeK_hjx2MJj76gfXcJd-170" style="edgeStyle=orthogonalEdgeStyle;rounded=0;orthogonalLoop=1;jettySize=auto;html=1;exitX=0.5;exitY=0;exitDx=0;exitDy=0;entryX=0.5;entryY=1;entryDx=0;entryDy=0;" edge="1" parent="1" source="XHeK_hjx2MJj76gfXcJd-117" target="XHeK_hjx2MJj76gfXcJd-147">
          <mxGeometry relative="1" as="geometry" />
        </mxCell>
        <mxCell id="XHeK_hjx2MJj76gfXcJd-117" value="ID_prestamo" style="ellipse;whiteSpace=wrap;html=1;align=center;fontStyle=4;" vertex="1" parent="1">
          <mxGeometry x="670" y="850" width="100" height="40" as="geometry" />
        </mxCell>
        <mxCell id="XHeK_hjx2MJj76gfXcJd-173" style="edgeStyle=orthogonalEdgeStyle;rounded=0;orthogonalLoop=1;jettySize=auto;html=1;exitX=0.5;exitY=0;exitDx=0;exitDy=0;entryX=0.5;entryY=1;entryDx=0;entryDy=0;" edge="1" parent="1" source="XHeK_hjx2MJj76gfXcJd-120" target="XHeK_hjx2MJj76gfXcJd-150">
          <mxGeometry relative="1" as="geometry" />
        </mxCell>
        <mxCell id="XHeK_hjx2MJj76gfXcJd-120" value="Fecha_prestamo" style="ellipse;whiteSpace=wrap;html=1;align=center;" vertex="1" parent="1">
          <mxGeometry x="1000" y="850" width="100" height="40" as="geometry" />
        </mxCell>
        <mxCell id="XHeK_hjx2MJj76gfXcJd-174" style="edgeStyle=orthogonalEdgeStyle;rounded=0;orthogonalLoop=1;jettySize=auto;html=1;exitX=0.5;exitY=0;exitDx=0;exitDy=0;entryX=0.5;entryY=1;entryDx=0;entryDy=0;" edge="1" parent="1" source="XHeK_hjx2MJj76gfXcJd-121" target="XHeK_hjx2MJj76gfXcJd-151">
          <mxGeometry relative="1" as="geometry" />
        </mxCell>
        <mxCell id="XHeK_hjx2MJj76gfXcJd-121" value="Fecha_devoluicion" style="ellipse;whiteSpace=wrap;html=1;align=center;" vertex="1" parent="1">
          <mxGeometry x="1110" y="850" width="100" height="40" as="geometry" />
        </mxCell>
        <mxCell id="XHeK_hjx2MJj76gfXcJd-175" style="edgeStyle=orthogonalEdgeStyle;rounded=0;orthogonalLoop=1;jettySize=auto;html=1;exitX=0.5;exitY=0;exitDx=0;exitDy=0;entryX=0.5;entryY=1;entryDx=0;entryDy=0;" edge="1" parent="1" source="XHeK_hjx2MJj76gfXcJd-122" target="XHeK_hjx2MJj76gfXcJd-152">
          <mxGeometry relative="1" as="geometry" />
        </mxCell>
        <mxCell id="XHeK_hjx2MJj76gfXcJd-122" value="Estado" style="ellipse;whiteSpace=wrap;html=1;align=center;" vertex="1" parent="1">
          <mxGeometry x="1225" y="850" width="100" height="40" as="geometry" />
        </mxCell>
        <mxCell id="XHeK_hjx2MJj76gfXcJd-171" style="edgeStyle=orthogonalEdgeStyle;rounded=0;orthogonalLoop=1;jettySize=auto;html=1;exitX=0.5;exitY=0;exitDx=0;exitDy=0;entryX=0.5;entryY=1;entryDx=0;entryDy=0;" edge="1" parent="1" source="XHeK_hjx2MJj76gfXcJd-123" target="XHeK_hjx2MJj76gfXcJd-148">
          <mxGeometry relative="1" as="geometry" />
        </mxCell>
        <mxCell id="XHeK_hjx2MJj76gfXcJd-123" value="&lt;span style=&quot;border-bottom: 1px dotted&quot;&gt;ID_libro&lt;/span&gt;" style="ellipse;whiteSpace=wrap;html=1;align=center;" vertex="1" parent="1">
          <mxGeometry x="780" y="850" width="100" height="40" as="geometry" />
        </mxCell>
        <mxCell id="XHeK_hjx2MJj76gfXcJd-172" style="edgeStyle=orthogonalEdgeStyle;rounded=0;orthogonalLoop=1;jettySize=auto;html=1;exitX=0.5;exitY=0;exitDx=0;exitDy=0;entryX=0.375;entryY=1;entryDx=0;entryDy=0;" edge="1" parent="1" source="XHeK_hjx2MJj76gfXcJd-124" target="XHeK_hjx2MJj76gfXcJd-149">
          <mxGeometry relative="1" as="geometry" />
        </mxCell>
        <mxCell id="XHeK_hjx2MJj76gfXcJd-124" value="&lt;span style=&quot;border-bottom: 1px dotted&quot;&gt;ID_usuario&lt;/span&gt;" style="ellipse;whiteSpace=wrap;html=1;align=center;" vertex="1" parent="1">
          <mxGeometry x="890" y="850" width="100" height="40" as="geometry" />
        </mxCell>
        <mxCell id="XHeK_hjx2MJj76gfXcJd-159" style="edgeStyle=orthogonalEdgeStyle;rounded=0;orthogonalLoop=1;jettySize=auto;html=1;exitX=0.5;exitY=0;exitDx=0;exitDy=0;" edge="1" parent="1" source="XHeK_hjx2MJj76gfXcJd-128">
          <mxGeometry relative="1" as="geometry">
            <mxPoint x="480" y="550" as="targetPoint" />
          </mxGeometry>
        </mxCell>
        <mxCell id="XHeK_hjx2MJj76gfXcJd-128" value="ID_usuario" style="ellipse;whiteSpace=wrap;html=1;align=center;fontStyle=4;" vertex="1" parent="1">
          <mxGeometry x="450" y="580" width="100" height="40" as="geometry" />
        </mxCell>
        <mxCell id="XHeK_hjx2MJj76gfXcJd-130" value="" style="edgeStyle=orthogonalEdgeStyle;rounded=0;orthogonalLoop=1;jettySize=auto;html=1;exitX=0.25;exitY=0;exitDx=0;exitDy=0;entryX=0.5;entryY=1;entryDx=0;entryDy=0;" edge="1" parent="1" source="XHeK_hjx2MJj76gfXcJd-52" target="XHeK_hjx2MJj76gfXcJd-129">
          <mxGeometry relative="1" as="geometry">
            <mxPoint x="610" y="700" as="sourcePoint" />
            <mxPoint x="595" y="620" as="targetPoint" />
          </mxGeometry>
        </mxCell>
        <mxCell id="XHeK_hjx2MJj76gfXcJd-160" style="edgeStyle=orthogonalEdgeStyle;rounded=0;orthogonalLoop=1;jettySize=auto;html=1;exitX=0.5;exitY=0;exitDx=0;exitDy=0;entryX=0.5;entryY=1;entryDx=0;entryDy=0;" edge="1" parent="1" source="XHeK_hjx2MJj76gfXcJd-129" target="XHeK_hjx2MJj76gfXcJd-154">
          <mxGeometry relative="1" as="geometry" />
        </mxCell>
        <mxCell id="XHeK_hjx2MJj76gfXcJd-129" value="Nombre" style="ellipse;whiteSpace=wrap;html=1;align=center;" vertex="1" parent="1">
          <mxGeometry x="550" y="580" width="100" height="40" as="geometry" />
        </mxCell>
        <mxCell id="XHeK_hjx2MJj76gfXcJd-161" style="edgeStyle=orthogonalEdgeStyle;rounded=0;orthogonalLoop=1;jettySize=auto;html=1;exitX=0.5;exitY=0;exitDx=0;exitDy=0;entryX=0.5;entryY=1;entryDx=0;entryDy=0;" edge="1" parent="1" source="XHeK_hjx2MJj76gfXcJd-131" target="XHeK_hjx2MJj76gfXcJd-155">
          <mxGeometry relative="1" as="geometry" />
        </mxCell>
        <mxCell id="XHeK_hjx2MJj76gfXcJd-131" value="Direccion" style="ellipse;whiteSpace=wrap;html=1;align=center;" vertex="1" parent="1">
          <mxGeometry x="640" y="580" width="100" height="40" as="geometry" />
        </mxCell>
        <mxCell id="XHeK_hjx2MJj76gfXcJd-162" style="edgeStyle=orthogonalEdgeStyle;rounded=0;orthogonalLoop=1;jettySize=auto;html=1;exitX=0.5;exitY=0;exitDx=0;exitDy=0;entryX=0.5;entryY=1;entryDx=0;entryDy=0;" edge="1" parent="1" source="XHeK_hjx2MJj76gfXcJd-132" target="XHeK_hjx2MJj76gfXcJd-156">
          <mxGeometry relative="1" as="geometry" />
        </mxCell>
        <mxCell id="XHeK_hjx2MJj76gfXcJd-132" value="correo_electronico" style="ellipse;whiteSpace=wrap;html=1;align=center;" vertex="1" parent="1">
          <mxGeometry x="740" y="580" width="100" height="40" as="geometry" />
        </mxCell>
        <mxCell id="XHeK_hjx2MJj76gfXcJd-163" style="edgeStyle=orthogonalEdgeStyle;rounded=0;orthogonalLoop=1;jettySize=auto;html=1;exitX=0.5;exitY=0;exitDx=0;exitDy=0;entryX=0.625;entryY=1;entryDx=0;entryDy=0;" edge="1" parent="1" source="XHeK_hjx2MJj76gfXcJd-133" target="XHeK_hjx2MJj76gfXcJd-157">
          <mxGeometry relative="1" as="geometry" />
        </mxCell>
        <mxCell id="XHeK_hjx2MJj76gfXcJd-133" value="Telefono" style="ellipse;whiteSpace=wrap;html=1;align=center;" vertex="1" parent="1">
          <mxGeometry x="850" y="580" width="100" height="40" as="geometry" />
        </mxCell>
        <mxCell id="XHeK_hjx2MJj76gfXcJd-135" value="Pide" style="shape=rhombus;perimeter=rhombusPerimeter;whiteSpace=wrap;html=1;align=center;" vertex="1" parent="1">
          <mxGeometry x="550" y="790" width="120" height="60" as="geometry" />
        </mxCell>
        <mxCell id="XHeK_hjx2MJj76gfXcJd-137" value="Contiene" style="shape=rhombus;perimeter=rhombusPerimeter;whiteSpace=wrap;html=1;align=center;" vertex="1" parent="1">
          <mxGeometry x="550" y="1000" width="120" height="60" as="geometry" />
        </mxCell>
        <mxCell id="XHeK_hjx2MJj76gfXcJd-140" value="int" style="shape=hexagon;perimeter=hexagonPerimeter2;whiteSpace=wrap;html=1;fixedSize=1;" vertex="1" parent="1">
          <mxGeometry x="-107.5" y="760" width="85" height="30" as="geometry" />
        </mxCell>
        <mxCell id="XHeK_hjx2MJj76gfXcJd-142" value="char" style="shape=hexagon;perimeter=hexagonPerimeter2;whiteSpace=wrap;html=1;fixedSize=1;" vertex="1" parent="1">
          <mxGeometry y="760" width="85" height="30" as="geometry" />
        </mxCell>
        <mxCell id="XHeK_hjx2MJj76gfXcJd-143" value="char" style="shape=hexagon;perimeter=hexagonPerimeter2;whiteSpace=wrap;html=1;fixedSize=1;" vertex="1" parent="1">
          <mxGeometry x="117.5" y="760" width="85" height="30" as="geometry" />
        </mxCell>
        <mxCell id="XHeK_hjx2MJj76gfXcJd-144" value="char" style="shape=hexagon;perimeter=hexagonPerimeter2;whiteSpace=wrap;html=1;fixedSize=1;" vertex="1" parent="1">
          <mxGeometry x="230" y="760" width="85" height="30" as="geometry" />
        </mxCell>
        <mxCell id="XHeK_hjx2MJj76gfXcJd-145" value="date" style="shape=hexagon;perimeter=hexagonPerimeter2;whiteSpace=wrap;html=1;fixedSize=1;" vertex="1" parent="1">
          <mxGeometry x="332.5" y="760" width="85" height="30" as="geometry" />
        </mxCell>
        <mxCell id="XHeK_hjx2MJj76gfXcJd-146" value="int" style="shape=hexagon;perimeter=hexagonPerimeter2;whiteSpace=wrap;html=1;fixedSize=1;" vertex="1" parent="1">
          <mxGeometry x="440" y="760" width="85" height="30" as="geometry" />
        </mxCell>
        <mxCell id="XHeK_hjx2MJj76gfXcJd-147" value="int" style="shape=hexagon;perimeter=hexagonPerimeter2;whiteSpace=wrap;html=1;fixedSize=1;" vertex="1" parent="1">
          <mxGeometry x="680" y="790" width="85" height="30" as="geometry" />
        </mxCell>
        <mxCell id="XHeK_hjx2MJj76gfXcJd-148" value="int" style="shape=hexagon;perimeter=hexagonPerimeter2;whiteSpace=wrap;html=1;fixedSize=1;" vertex="1" parent="1">
          <mxGeometry x="787.5" y="790" width="85" height="30" as="geometry" />
        </mxCell>
        <mxCell id="XHeK_hjx2MJj76gfXcJd-149" value="int" style="shape=hexagon;perimeter=hexagonPerimeter2;whiteSpace=wrap;html=1;fixedSize=1;" vertex="1" parent="1">
          <mxGeometry x="905" y="790" width="85" height="30" as="geometry" />
        </mxCell>
        <mxCell id="XHeK_hjx2MJj76gfXcJd-150" value="date" style="shape=hexagon;perimeter=hexagonPerimeter2;whiteSpace=wrap;html=1;fixedSize=1;" vertex="1" parent="1">
          <mxGeometry x="1017.5" y="790" width="85" height="30" as="geometry" />
        </mxCell>
        <mxCell id="XHeK_hjx2MJj76gfXcJd-151" value="date" style="shape=hexagon;perimeter=hexagonPerimeter2;whiteSpace=wrap;html=1;fixedSize=1;" vertex="1" parent="1">
          <mxGeometry x="1120" y="790" width="85" height="30" as="geometry" />
        </mxCell>
        <mxCell id="XHeK_hjx2MJj76gfXcJd-152" value="(categorico)" style="shape=hexagon;perimeter=hexagonPerimeter2;whiteSpace=wrap;html=1;fixedSize=1;" vertex="1" parent="1">
          <mxGeometry x="1227.5" y="790" width="85" height="30" as="geometry" />
        </mxCell>
        <mxCell id="XHeK_hjx2MJj76gfXcJd-153" value="int" style="shape=hexagon;perimeter=hexagonPerimeter2;whiteSpace=wrap;html=1;fixedSize=1;" vertex="1" parent="1">
          <mxGeometry x="440" y="510" width="85" height="30" as="geometry" />
        </mxCell>
        <mxCell id="XHeK_hjx2MJj76gfXcJd-154" value="char" style="shape=hexagon;perimeter=hexagonPerimeter2;whiteSpace=wrap;html=1;fixedSize=1;" vertex="1" parent="1">
          <mxGeometry x="547.5" y="510" width="85" height="30" as="geometry" />
        </mxCell>
        <mxCell id="XHeK_hjx2MJj76gfXcJd-155" value="char" style="shape=hexagon;perimeter=hexagonPerimeter2;whiteSpace=wrap;html=1;fixedSize=1;" vertex="1" parent="1">
          <mxGeometry x="665" y="510" width="85" height="30" as="geometry" />
        </mxCell>
        <mxCell id="XHeK_hjx2MJj76gfXcJd-156" value="char" style="shape=hexagon;perimeter=hexagonPerimeter2;whiteSpace=wrap;html=1;fixedSize=1;" vertex="1" parent="1">
          <mxGeometry x="777.5" y="510" width="85" height="30" as="geometry" />
        </mxCell>
        <mxCell id="XHeK_hjx2MJj76gfXcJd-157" value="int" style="shape=hexagon;perimeter=hexagonPerimeter2;whiteSpace=wrap;html=1;fixedSize=1;" vertex="1" parent="1">
          <mxGeometry x="880" y="510" width="85" height="30" as="geometry" />
        </mxCell>
        <mxCell id="XHeK_hjx2MJj76gfXcJd-178" value="" style="edgeStyle=entityRelationEdgeStyle;fontSize=12;html=1;endArrow=ERoneToMany;rounded=0;exitX=1;exitY=0.75;exitDx=0;exitDy=0;entryX=0;entryY=0.5;entryDx=0;entryDy=0;" edge="1" parent="1" source="XHeK_hjx2MJj76gfXcJd-53" target="XHeK_hjx2MJj76gfXcJd-137">
          <mxGeometry width="100" height="100" relative="1" as="geometry">
            <mxPoint x="290" y="1150" as="sourcePoint" />
            <mxPoint x="390" y="1050" as="targetPoint" />
          </mxGeometry>
        </mxCell>
        <mxCell id="XHeK_hjx2MJj76gfXcJd-179" value="1" style="text;strokeColor=none;fillColor=none;spacingLeft=4;spacingRight=4;overflow=hidden;rotatable=0;points=[[0,0.5],[1,0.5]];portConstraint=eastwest;fontSize=12;whiteSpace=wrap;html=1;" vertex="1" parent="1">
          <mxGeometry x="360" y="1030" width="40" height="30" as="geometry" />
        </mxCell>
        <mxCell id="XHeK_hjx2MJj76gfXcJd-180" value="N" style="text;strokeColor=none;fillColor=none;spacingLeft=4;spacingRight=4;overflow=hidden;rotatable=0;points=[[0,0.5],[1,0.5]];portConstraint=eastwest;fontSize=12;whiteSpace=wrap;html=1;" vertex="1" parent="1">
          <mxGeometry x="777.5" y="1040" width="40" height="30" as="geometry" />
        </mxCell>
      </root>
    </mxGraphModel>
  </diagram>
</mxfile>
